<svg width="23" height="18" viewBox="0 0 23 18" fill="none" xmlns="http://www.w3.org/2000/svg">
<path fill-rule="evenodd" clip-rule="evenodd" d="M23 5.80416C22.615 6.22603 22.1786 6.59677 21.7165 6.91637C19.5731 8.36098 17.4169 9.81836 15.3248 11.3269C14.2467 12.1195 12.9118 13.0911 11.5128 13.0911H11.5H11.4872C10.0882 13.0911 8.75336 12.1195 7.67523 11.3269C5.58315 9.80558 3.4269 8.36098 1.29632 6.91637C0.82143 6.59677 0.385045 6.22603 0 5.80416V15.9547C0 17.0797 0.924108 18.0002 2.05357 18.0002H20.9465C22.0759 18.0002 23 17.0797 23 15.9547V5.80416Z" fill="#E8EAF1"/>
<path fill-rule="evenodd" clip-rule="evenodd" d="M23 2.04554C23 0.920538 22.0631 8.2463e-05 20.9465 8.2463e-05H2.05357C0.680246 8.2463e-05 0 1.07395 0 2.32679C0 3.49014 1.29632 4.93475 2.20759 5.54838C4.19699 6.92907 6.21206 8.30975 8.20146 9.70322C9.03573 10.2785 10.4476 11.4546 11.4872 11.4546H11.5H11.5128C12.5525 11.4546 13.9643 10.2785 14.7986 9.70322C16.788 8.30975 18.803 6.92907 20.8053 5.54838C21.9347 4.76855 23 3.47736 23 2.04554Z" fill="#E8EAF1"/>
</svg>
