<svg width="19" height="21" viewBox="0 0 19 21" fill="none" xmlns="http://www.w3.org/2000/svg">
<path fill-rule="evenodd" clip-rule="evenodd" d="M8.23061 12.2381C5.70798 9.59808 4.78926 7.91958 5.47442 7.20254C5.50556 7.16995 5.56785 7.10476 5.66128 7.00699C6.12843 6.51809 6.44765 6.12699 6.61894 5.83365C6.79023 5.54032 6.82137 5.10032 6.71237 4.51365C6.60337 3.92698 6.22186 3.20995 5.56785 2.36254C5.25641 1.97143 4.96834 1.65365 4.70362 1.40921C4.4389 1.16476 4.1664 1.03439 3.8861 1.0181C3.60581 1.0018 3.37224 0.993652 3.18538 0.993652C2.99852 0.993652 2.77273 1.09958 2.50801 1.31143C2.24329 1.52328 2.05643 1.66995 1.94743 1.75143C1.83843 1.83291 1.63599 2.03661 1.34013 2.36254C1.04427 2.68847 0.880768 2.86773 0.849623 2.90032C0.102179 3.68254 0.148891 5.26327 0.989767 7.64254C1.83064 10.0218 3.41894 12.4173 5.75471 14.8292C8.09048 17.2737 10.3873 18.944 12.6452 19.8403C14.9031 20.7366 16.4058 20.7937 17.1532 20.0114C17.1843 19.9788 17.3634 19.7996 17.6904 19.4736C18.0174 19.1477 18.2121 18.944 18.2744 18.8625C18.3366 18.7811 18.4768 18.5855 18.6948 18.2759C18.9128 17.9662 19.014 17.7137 18.9984 17.5181C18.9829 17.3225 18.9673 17.0781 18.9517 16.7848C18.9362 16.4914 18.8194 16.2062 18.6014 15.9292C18.3834 15.6522 18.0875 15.3507 17.7138 15.0248C17.0598 14.4707 16.5148 14.0877 16.0787 13.8759C15.6427 13.664 15.2223 13.6477 14.8174 13.827C14.4126 14.0062 14.1401 14.1529 13.9999 14.267C13.8598 14.3811 13.5561 14.6825 13.089 15.1714C12.4038 15.8885 10.7844 14.9107 8.23061 12.2381Z" fill="#E8EAF1"/>
</svg>
